<svg width="15" height="15" viewBox="0 0 15 15" fill="none" xmlns="http://www.w3.org/2000/svg">
<path d="M0.937439 11.0152C0.937439 11.4503 1.11029 11.8676 1.41797 12.1753C1.72564 12.483 2.14294 12.6558 2.57806 12.6558H12.4218C12.8569 12.6558 13.2742 12.483 13.5819 12.1753C13.8896 11.8676 14.0624 11.4503 14.0624 11.0152V6.50349H0.937439V11.0152ZM2.87103 8.78864C2.87103 8.55554 2.96363 8.33199 3.12846 8.16716C3.29328 8.00234 3.51684 7.90974 3.74994 7.90974H5.15619C5.38929 7.90974 5.61284 8.00234 5.77767 8.16716C5.9425 8.33199 6.03509 8.55554 6.03509 8.78864V9.37458C6.03509 9.60768 5.9425 9.83123 5.77767 9.99606C5.61284 10.1609 5.38929 10.2535 5.15619 10.2535H3.74994C3.51684 10.2535 3.29328 10.1609 3.12846 9.99606C2.96363 9.83123 2.87103 9.60768 2.87103 9.37458V8.78864Z" fill="white"/>
<path d="M12.4218 2.34295H2.57806C2.14294 2.34295 1.72564 2.5158 1.41797 2.82348C1.11029 3.13115 0.937439 3.54845 0.937439 3.98357V4.74529H14.0624V3.98357C14.0624 3.54845 13.8896 3.13115 13.5819 2.82348C13.2742 2.5158 12.8569 2.34295 12.4218 2.34295V2.34295Z" fill="white"/>
</svg>
