<svg width="15" height="15" viewBox="0 0 15 15" fill="none" xmlns="http://www.w3.org/2000/svg">
<path d="M3.04684 14.5316H2.10934C1.92286 14.5316 1.74402 14.4575 1.61216 14.3257C1.4803 14.1938 1.40622 14.015 1.40622 13.8285V9.60975C1.40622 9.42327 1.4803 9.24443 1.61216 9.11256C1.74402 8.9807 1.92286 8.90662 2.10934 8.90662H3.04684C3.23332 8.90662 3.41217 8.9807 3.54403 9.11256C3.67589 9.24443 3.74997 9.42327 3.74997 9.60975V13.8285C3.74997 14.015 3.67589 14.1938 3.54403 14.3257C3.41217 14.4575 3.23332 14.5316 3.04684 14.5316V14.5316Z" fill="white"/>
<path d="M9.60937 14.5308H8.67187C8.48539 14.5308 8.30655 14.4567 8.17469 14.3249C8.04283 14.193 7.96875 14.0142 7.96875 13.8277V6.79643C7.96875 6.60995 8.04283 6.43111 8.17469 6.29925C8.30655 6.16739 8.48539 6.09331 8.67187 6.09331H9.60937C9.79585 6.09331 9.9747 6.16739 10.1066 6.29925C10.2384 6.43111 10.3125 6.60995 10.3125 6.79643V13.8277C10.3125 14.0142 10.2384 14.193 10.1066 14.3249C9.9747 14.4567 9.79585 14.5308 9.60937 14.5308V14.5308Z" fill="white"/>
<path d="M12.8906 14.5312H11.9531C11.7666 14.5312 11.5878 14.4571 11.4559 14.3252C11.324 14.1934 11.25 14.0145 11.25 13.828V3.51555C11.25 3.32907 11.324 3.15023 11.4559 3.01836C11.5878 2.8865 11.7666 2.81242 11.9531 2.81242H12.8906C13.0771 2.81242 13.2559 2.8865 13.3878 3.01836C13.5196 3.15023 13.5937 3.32907 13.5937 3.51555V13.828C13.5937 14.0145 13.5196 14.1934 13.3878 14.3252C13.2559 14.4571 13.0771 14.5312 12.8906 14.5312V14.5312Z" fill="white"/>
<path d="M6.32812 14.531H5.39062C5.20414 14.531 5.0253 14.4569 4.89344 14.3251C4.76158 14.1932 4.6875 14.0144 4.6875 13.8279V1.17162C4.6875 0.985145 4.76158 0.806302 4.89344 0.674441C5.0253 0.542579 5.20414 0.4685 5.39062 0.4685H6.32812C6.5146 0.4685 6.69345 0.542579 6.82531 0.674441C6.95717 0.806302 7.03125 0.985145 7.03125 1.17162V13.8279C7.03125 14.0144 6.95717 14.1932 6.82531 14.3251C6.69345 14.4569 6.5146 14.531 6.32812 14.531V14.531Z" fill="white"/>
</svg>
