<svg width="15" height="16" viewBox="0 0 15 16" fill="none" xmlns="http://www.w3.org/2000/svg">
<g clip-path="url(#clip0_0_454)">
<path d="M7.66295 3.46754C7.61933 3.42582 7.5613 3.40253 7.50094 3.40253C7.44058 3.40253 7.38254 3.42582 7.33893 3.46754L1.94537 8.61998C1.92247 8.64189 1.90424 8.66822 1.89181 8.69738C1.87937 8.72654 1.87297 8.75791 1.87301 8.78961L1.87213 13.6254C1.87213 13.874 1.9709 14.1124 2.14672 14.2883C2.32253 14.4641 2.56099 14.5629 2.80963 14.5629H5.62506C5.74938 14.5629 5.86861 14.5135 5.95652 14.4256C6.04442 14.3377 6.09381 14.2184 6.09381 14.0941V10.1097C6.09381 10.0476 6.1185 9.98795 6.16246 9.944C6.20641 9.90005 6.26602 9.87535 6.32818 9.87535H8.67193C8.73409 9.87535 8.79371 9.90005 8.83766 9.944C8.88162 9.98795 8.90631 10.0476 8.90631 10.1097V14.0941C8.90631 14.2184 8.95569 14.3377 9.0436 14.4256C9.13151 14.5135 9.25074 14.5629 9.37506 14.5629H12.1893C12.438 14.5629 12.6764 14.4641 12.8522 14.2883C13.028 14.1124 13.1268 13.874 13.1268 13.6254V8.78961C13.1269 8.75791 13.1205 8.72654 13.108 8.69738C13.0956 8.66822 13.0774 8.64189 13.0545 8.61998L7.66295 3.46754Z" fill="white"/>
<path d="M14.3826 7.65374L12.1912 5.55725V2.37591C12.1912 2.25159 12.1418 2.13236 12.0539 2.04445C11.966 1.95654 11.8467 1.90716 11.7224 1.90716H10.3162C10.1918 1.90716 10.0726 1.95654 9.9847 2.04445C9.89679 2.13236 9.84741 2.25159 9.84741 2.37591V3.31341L8.15053 1.69095C7.99174 1.5304 7.75561 1.43841 7.50044 1.43841C7.24614 1.43841 7.01059 1.5304 6.8518 1.69124L0.62036 7.65315C0.438134 7.82893 0.415282 8.11809 0.581102 8.30852C0.622742 8.35659 0.673728 8.39568 0.730955 8.42342C0.788183 8.45116 0.850456 8.46696 0.913985 8.46986C0.977514 8.47277 1.04097 8.46272 1.10049 8.44032C1.16001 8.41792 1.21435 8.38365 1.2602 8.33958L7.3393 2.5306C7.38292 2.48887 7.44095 2.46558 7.50131 2.46558C7.56168 2.46558 7.61971 2.48887 7.66333 2.5306L13.743 8.33958C13.8326 8.42546 13.9525 8.47233 14.0766 8.46992C14.2006 8.4675 14.3187 8.41599 14.4048 8.32669C14.5847 8.14036 14.5698 7.83274 14.3826 7.65374Z" fill="white"/>
</g>
<defs>
<clipPath id="clip0_0_454">
<rect width="15" height="15" fill="white" transform="translate(6.10352e-05 0.50004)"/>
</clipPath>
</defs>
</svg>
