<svg width="75.000000" height="75.000000" viewBox="0 0 75 75" fill="none" xmlns="http://www.w3.org/2000/svg" xmlns:xlink="http://www.w3.org/1999/xlink">
	<desc>
			Created with Pixso.
	</desc>
	<defs>
		<filter id="filter_0_322_dd" x="0.000000" y="0.000000" width="75.000000" height="75.000000" filterUnits="userSpaceOnUse" color-interpolation-filters="sRGB">
			<feFlood flood-opacity="0" result="BackgroundImageFix"/>
			<feColorMatrix in="SourceAlpha" type="matrix" values="0 0 0 0 0 0 0 0 0 0 0 0 0 0 0 0 0 0 127 0" result="hardAlpha"/>
			<feOffset dx="0" dy="3.5"/>
			<feGaussianBlur stdDeviation="1.83333"/>
			<feComposite in2="hardAlpha" operator="out" k2="-1" k3="1"/>
			<feColorMatrix type="matrix" values="0 0 0 0 0 0 0 0 0 0 0 0 0 0 0 0 0 0 0.02 0"/>
			<feBlend mode="normal" in2="BackgroundImageFix" result="effect_dropShadow_1"/>
			<feBlend mode="normal" in="SourceGraphic" in2="effect_dropShadow_1" result="shape"/>
		</filter>
		<clipPath id="clip0_323">
			<rect id="IONIcon/W/wallet/default" rx="0.000000" width="25.976561" height="25.976561" transform="translate(24.511780 21.011734)" fill="white" fill-opacity="0"/>
		</clipPath>
	</defs>
	<g filter="url(#filter_0_322_dd)">
		<rect id="Rectangle 3" x="5.500000" y="2.000000" rx="8.000000" width="63.999996" height="63.999996" fill="#3182CE" fill-opacity="1.000000"/>
	</g>
	<rect id="IONIcon/W/wallet/default" rx="0.000000" width="25.976561" height="25.976561" transform="translate(24.511780 21.011734)" fill="#FFFFFF" fill-opacity="0"/>
	<g clip-path="url(#clip0_323)">
		<path id="Vector" d="M29.34 26.27L45.59 26.27C45.78 26.27 45.97 26.29 46.16 26.31C46.1 25.86 45.94 25.43 45.71 25.04C45.48 24.66 45.16 24.32 44.8 24.06C44.43 23.79 44.01 23.61 43.57 23.51C43.13 23.41 42.67 23.41 42.23 23.49L28.86 25.77L28.85 25.77C28.01 25.93 27.26 26.41 26.76 27.1C27.52 26.56 28.42 26.27 29.34 26.27Z" fill="#FFFFFF" fill-opacity="1.000000" fill-rule="nonzero"/>
		<path id="Vector" d="M45.59 27.49L29.34 27.49C28.48 27.5 27.66 27.84 27.05 28.45C26.44 29.06 26.1 29.88 26.09 30.74L26.09 40.49C26.1 41.36 26.44 42.18 27.05 42.79C27.66 43.4 28.48 43.74 29.34 43.74L45.59 43.74C46.46 43.74 47.28 43.4 47.89 42.79C48.5 42.18 48.84 41.36 48.84 40.49L48.84 30.74C48.84 29.88 48.5 29.06 47.89 28.45C47.28 27.84 46.46 27.5 45.59 27.49ZM43.18 37.24C42.86 37.24 42.55 37.15 42.28 36.97C42.01 36.79 41.8 36.54 41.68 36.24C41.56 35.94 41.53 35.62 41.59 35.3C41.65 34.99 41.81 34.7 42.03 34.47C42.26 34.24 42.55 34.09 42.87 34.03C43.18 33.96 43.51 34 43.8 34.12C44.1 34.24 44.36 34.45 44.53 34.72C44.71 34.98 44.81 35.3 44.81 35.62C44.81 36.05 44.64 36.46 44.33 36.77C44.03 37.07 43.61 37.24 43.18 37.24Z" fill="#FFFFFF" fill-opacity="1.000000" fill-rule="nonzero"/>
		<path id="Vector" d="M26.12 34.17L26.12 29.12C26.12 28.02 26.73 26.17 28.84 25.77C30.64 25.44 32.42 25.44 32.42 25.44C32.42 25.44 33.58 26.25 32.62 26.25C31.66 26.25 31.68 27.49 32.62 27.49C33.56 27.49 32.62 28.69 32.62 28.69L28.84 32.98L26.12 34.17Z" fill="#FFFFFF" fill-opacity="1.000000" fill-rule="nonzero"/>
	</g>
</svg>
