<svg width="15" height="16" viewBox="0 0 15 16" fill="none" xmlns="http://www.w3.org/2000/svg">
<g clip-path="url(#clip0_0_446)">
<path d="M0.937622 11.5152C0.937622 11.9503 1.11047 12.3676 1.41815 12.6753C1.72583 12.983 2.14313 13.1559 2.57825 13.1559H12.422C12.8571 13.1559 13.2744 12.983 13.5821 12.6753C13.8898 12.3676 14.0626 11.9503 14.0626 11.5152V7.00351H0.937622V11.5152ZM2.87122 9.28867C2.87122 9.05557 2.96381 8.83201 3.12864 8.66719C3.29347 8.50236 3.51702 8.40976 3.75012 8.40976H5.15637C5.38947 8.40976 5.61302 8.50236 5.77785 8.66719C5.94268 8.83201 6.03528 9.05557 6.03528 9.28867V9.8746C6.03528 10.1077 5.94268 10.3313 5.77785 10.4961C5.61302 10.6609 5.38947 10.7535 5.15637 10.7535H3.75012C3.51702 10.7535 3.29347 10.6609 3.12864 10.4961C2.96381 10.3313 2.87122 10.1077 2.87122 9.8746V9.28867Z" fill="#3182CE"/>
<path d="M12.422 2.84297H2.57825C2.14313 2.84297 1.72583 3.01582 1.41815 3.3235C1.11047 3.63118 0.937622 4.04848 0.937622 4.4836V5.24531H14.0626V4.4836C14.0626 4.04848 13.8898 3.63118 13.5821 3.3235C13.2744 3.01582 12.8571 2.84297 12.422 2.84297Z" fill="#3182CE"/>
</g>
<defs>
<clipPath id="clip0_0_446">
<rect width="15" height="15" fill="white" transform="translate(0.000152588 0.500023)"/>
</clipPath>
</defs>
</svg>
