<svg width="15" height="16" viewBox="0 0 15 16" fill="none" xmlns="http://www.w3.org/2000/svg">
<g clip-path="url(#clip0_0_449)">
<path d="M3.047 15.0316H2.1095C1.92302 15.0316 1.74417 14.9575 1.61231 14.8257C1.48045 14.6938 1.40637 14.5149 1.40637 14.3285V10.1097C1.40637 9.92324 1.48045 9.7444 1.61231 9.61253C1.74417 9.48067 1.92302 9.40659 2.1095 9.40659H3.047C3.23348 9.40659 3.41232 9.48067 3.54418 9.61253C3.67604 9.7444 3.75012 9.92324 3.75012 10.1097V14.3285C3.75012 14.5149 3.67604 14.6938 3.54418 14.8257C3.41232 14.9575 3.23348 15.0316 3.047 15.0316V15.0316Z" fill="#3182CE"/>
<path d="M9.60953 15.0308H8.67203C8.48555 15.0308 8.3067 14.9567 8.17484 14.8248C8.04298 14.693 7.9689 14.5141 7.9689 14.3277V7.29641C7.9689 7.10993 8.04298 6.93108 8.17484 6.79922C8.3067 6.66736 8.48555 6.59328 8.67203 6.59328H9.60953C9.79601 6.59328 9.97485 6.66736 10.1067 6.79922C10.2386 6.93108 10.3127 7.10993 10.3127 7.29641V14.3277C10.3127 14.5141 10.2386 14.693 10.1067 14.8248C9.97485 14.9567 9.79601 15.0308 9.60953 15.0308V15.0308Z" fill="#3182CE"/>
<path d="M12.8907 15.0311H11.9532C11.7668 15.0311 11.5879 14.9571 11.4561 14.8252C11.3242 14.6933 11.2501 14.5145 11.2501 14.328V4.01552C11.2501 3.82904 11.3242 3.6502 11.4561 3.51833C11.5879 3.38647 11.7668 3.31239 11.9532 3.31239H12.8907C13.0772 3.31239 13.2561 3.38647 13.3879 3.51833C13.5198 3.6502 13.5939 3.82904 13.5939 4.01552V14.328C13.5939 14.5145 13.5198 14.6933 13.3879 14.8252C13.2561 14.9571 13.0772 15.0311 12.8907 15.0311V15.0311Z" fill="#3182CE"/>
<path d="M6.32825 15.031H5.39075C5.20427 15.031 5.02542 14.9569 4.89356 14.825C4.7617 14.6932 4.68762 14.5143 4.68762 14.3278V1.6716C4.68762 1.48512 4.7617 1.30627 4.89356 1.17441C5.02542 1.04255 5.20427 0.968472 5.39075 0.968472H6.32825C6.51473 0.968472 6.69357 1.04255 6.82543 1.17441C6.95729 1.30627 7.03137 1.48512 7.03137 1.6716V14.3278C7.03137 14.5143 6.95729 14.6932 6.82543 14.825C6.69357 14.9569 6.51473 15.031 6.32825 15.031V15.031Z" fill="#3182CE"/>
</g>
<defs>
<clipPath id="clip0_0_449">
<rect width="15" height="15" fill="white" transform="translate(0.000152588 0.499971)"/>
</clipPath>
</defs>
</svg>
