<svg width="15" height="15" viewBox="0 0 15 15" fill="none" xmlns="http://www.w3.org/2000/svg">
<g clip-path="url(#clip0_452_104)">
<path d="M7.66289 2.9675C7.61927 2.92578 7.56124 2.90249 7.50088 2.90249C7.44052 2.90249 7.38248 2.92578 7.33887 2.9675L1.94531 8.11994C1.92241 8.14185 1.90418 8.16818 1.89175 8.19734C1.87931 8.2265 1.87291 8.25787 1.87295 8.28957L1.87207 13.1253C1.87207 13.374 1.97084 13.6124 2.14666 13.7882C2.32247 13.964 2.56093 14.0628 2.80957 14.0628H5.625C5.74932 14.0628 5.86855 14.0134 5.95645 13.9255C6.04436 13.8376 6.09375 13.7184 6.09375 13.5941V9.60969C6.09375 9.54753 6.11844 9.48791 6.1624 9.44396C6.20635 9.40001 6.26596 9.37531 6.32812 9.37531H8.67187C8.73403 9.37531 8.79365 9.40001 8.8376 9.44396C8.88155 9.48791 8.90625 9.54753 8.90625 9.60969V13.5941C8.90625 13.7184 8.95563 13.8376 9.04354 13.9255C9.13145 14.0134 9.25068 14.0628 9.375 14.0628H12.1893C12.4379 14.0628 12.6764 13.964 12.8522 13.7882C13.028 13.6124 13.1268 13.374 13.1268 13.1253V8.28957C13.1268 8.25787 13.1204 8.2265 13.108 8.19734C13.0955 8.16818 13.0773 8.14185 13.0544 8.11994L7.66289 2.9675Z" fill="#3182CE"/>
<path d="M14.3825 7.1537L12.1911 5.05721V1.87587C12.1911 1.75155 12.1417 1.63232 12.0538 1.54441C11.9659 1.4565 11.8467 1.40712 11.7223 1.40712H10.3161C10.1918 1.40712 10.0725 1.4565 9.98464 1.54441C9.89673 1.63232 9.84735 1.75155 9.84735 1.87587V2.81337L8.15047 1.19091C7.99168 1.03036 7.75555 0.938368 7.50037 0.938368C7.24608 0.938368 7.01053 1.03036 6.85174 1.1912L0.620299 7.15311C0.438073 7.32889 0.415221 7.61805 0.581041 7.80848C0.622681 7.85655 0.673667 7.89564 0.730894 7.92338C0.788122 7.95112 0.850395 7.96692 0.913924 7.96982C0.977453 7.97273 1.04091 7.96268 1.10043 7.94028C1.15995 7.91788 1.21429 7.88361 1.26014 7.83954L7.33924 2.03056C7.38286 1.98883 7.44089 1.96554 7.50125 1.96554C7.56161 1.96554 7.61965 1.98883 7.66327 2.03056L13.7429 7.83954C13.8325 7.92542 13.9525 7.97229 14.0765 7.96988C14.2006 7.96746 14.3186 7.91595 14.4048 7.82665C14.5846 7.64032 14.5697 7.3327 14.3825 7.1537Z" fill="#3182CE"/>
</g>
<defs>
<clipPath id="clip0_452_104">
<rect width="15" height="15" fill="white"/>
</clipPath>
</defs>
</svg>
