<svg width="15" height="16" viewBox="0 0 15 16" fill="none" xmlns="http://www.w3.org/2000/svg">
<path d="M9.7454 2.39181C9.17528 1.77628 8.37899 1.43732 7.50009 1.43732C6.61649 1.43732 5.81757 1.77423 5.25009 2.38595C4.67646 3.00441 4.39696 3.84493 4.46259 4.75255C4.59267 6.54317 5.95526 7.99981 7.50009 7.99981C9.04491 7.99981 10.4052 6.54347 10.5373 4.75314C10.6038 3.85372 10.3225 3.01495 9.7454 2.39181Z" fill="#3182CE"/>
<path d="M12.6564 14.5616H2.34386C2.20887 14.5634 2.0752 14.535 1.95256 14.4786C1.82991 14.4222 1.72139 14.3392 1.63487 14.2356C1.44444 14.0079 1.36768 13.6971 1.42452 13.3827C1.67179 12.0111 2.44347 10.8588 3.65636 10.0499C4.73389 9.33186 6.09883 8.93665 7.5001 8.93665C8.90137 8.93665 10.2663 9.33215 11.3439 10.0499C12.5567 10.8585 13.3284 12.0108 13.5757 13.3824C13.6325 13.6968 13.5558 14.0076 13.3653 14.2353C13.2788 14.339 13.1703 14.422 13.0477 14.4785C12.925 14.535 12.7914 14.5634 12.6564 14.5616V14.5616Z" fill="#3182CE"/>
</svg>
