<svg width="15" height="14" viewBox="0 0 15 14" fill="none" xmlns="http://www.w3.org/2000/svg">
<path d="M13.7568 3.03136C13.7231 2.96571 13.6743 2.90896 13.6144 2.86574C13.5546 2.82251 13.4854 2.79403 13.4125 2.7826C13.3395 2.77118 13.2649 2.77715 13.1948 2.80001C13.1246 2.82287 13.0608 2.86199 13.0086 2.91417L11.2086 4.71534C11.1202 4.80242 11.0011 4.85123 10.8771 4.85123C10.753 4.85123 10.6339 4.80242 10.5456 4.71534L9.76745 3.93604C9.72391 3.89252 9.68938 3.84084 9.66581 3.78396C9.64225 3.72708 9.63012 3.66612 9.63012 3.60455C9.63012 3.54298 9.64225 3.48202 9.66581 3.42514C9.68938 3.36826 9.72391 3.31659 9.76745 3.27306L11.5598 1.48038C11.6136 1.42666 11.6534 1.36068 11.676 1.28812C11.6986 1.21557 11.7032 1.13861 11.6894 1.06389C11.6756 0.989169 11.6439 0.918916 11.5969 0.859183C11.5499 0.799451 11.4892 0.752031 11.4198 0.721006V0.721006C10.066 0.115733 8.37614 0.431553 7.31062 1.48917C6.40534 2.388 6.13552 3.79249 6.57087 5.34259C6.59434 5.42525 6.59448 5.51279 6.57126 5.59553C6.54804 5.67826 6.50238 5.75296 6.43933 5.81134L1.56199 10.2659C1.37198 10.4365 1.21872 10.644 1.11155 10.8758C1.00439 11.1076 0.945566 11.3588 0.938673 11.6141C0.931781 11.8693 0.976963 12.1233 1.07146 12.3605C1.16597 12.5978 1.3078 12.8132 1.48833 12.9938C1.66885 13.1745 1.88428 13.3164 2.12146 13.411C2.35865 13.5056 2.61262 13.5509 2.86788 13.5441C3.12315 13.5373 3.37436 13.4786 3.60619 13.3716C3.83801 13.2645 4.0456 13.1113 4.21628 12.9214L8.71862 8.03321C8.77617 7.97097 8.8496 7.92561 8.93101 7.90202C9.01243 7.87843 9.09873 7.87749 9.18064 7.89932C9.62195 8.02024 10.0772 8.08298 10.5347 8.08595C11.5133 8.08595 12.3719 7.76925 12.9913 7.15899C14.1383 6.02901 14.3132 4.11241 13.7568 3.03136ZM2.91521 12.6006C2.72226 12.6217 2.52753 12.5823 2.35789 12.488C2.18826 12.3937 2.05208 12.249 1.96815 12.074C1.88423 11.899 1.85669 11.7022 1.88934 11.5109C1.922 11.3196 2.01323 11.1431 2.15045 11.0058C2.28768 10.8686 2.46412 10.7773 2.65544 10.7445C2.84676 10.7118 3.04351 10.7393 3.21856 10.8232C3.3936 10.907 3.5383 11.0431 3.63268 11.2128C3.72706 11.3824 3.76648 11.5771 3.74548 11.77C3.72238 11.9823 3.62749 12.1804 3.47651 12.3314C3.32553 12.4825 3.12751 12.5774 2.91521 12.6006V12.6006Z" fill="#3182CE"/>
</svg>
