<svg width="15" height="16" viewBox="0 0 15 16" fill="none" xmlns="http://www.w3.org/2000/svg">
<g clip-path="url(#clip0_0_433)">
<path d="M13.9935 1.62154C13.9881 1.59562 13.9755 1.57178 13.9571 1.55278C13.9387 1.53379 13.9152 1.52045 13.8895 1.51431C12.1736 1.09478 8.20883 2.5898 6.06079 4.73696C5.67766 5.11699 5.32839 5.52968 5.01694 5.97036C4.35454 5.91177 3.69213 5.96069 3.12758 6.20679C1.53471 6.90786 1.07094 8.73716 0.941746 9.52407C0.934417 9.56714 0.937181 9.61133 0.949821 9.65315C0.96246 9.69497 0.98463 9.73329 1.01459 9.76509C1.04454 9.79689 1.08147 9.82131 1.12246 9.83643C1.16346 9.85154 1.2074 9.85694 1.25083 9.8522L3.80874 9.57007C3.81056 9.76292 3.8222 9.95555 3.8436 10.1472C3.85647 10.2803 3.91556 10.4047 4.01059 10.4988L5.00112 11.487C5.09528 11.5819 5.21962 11.6409 5.35268 11.654C5.54328 11.6753 5.73483 11.6869 5.92661 11.6888L5.64594 14.2435C5.64126 14.2869 5.6467 14.3308 5.66184 14.3718C5.67697 14.4128 5.70139 14.4497 5.73318 14.4796C5.76497 14.5095 5.80326 14.5317 5.84505 14.5444C5.88685 14.557 5.93101 14.5599 5.97407 14.5526C6.75952 14.4266 8.59204 13.9628 9.28901 12.37C9.5351 11.8054 9.58549 11.1462 9.52866 10.4871C9.9704 10.1756 10.3842 9.82622 10.7653 9.44292C12.9201 7.29897 14.4066 3.42271 13.9935 1.62154ZM8.61547 6.8853C8.41871 6.68867 8.28469 6.4381 8.23035 6.16529C8.17602 5.89248 8.20381 5.60969 8.31022 5.35267C8.41663 5.09566 8.59687 4.87598 8.82815 4.72142C9.05943 4.56686 9.33135 4.48436 9.60952 4.48436C9.88768 4.48436 10.1596 4.56686 10.3909 4.72142C10.6222 4.87598 10.8024 5.09566 10.9088 5.35267C11.0152 5.60969 11.043 5.89248 10.9887 6.16529C10.9343 6.4381 10.8003 6.68867 10.6036 6.8853C10.4731 7.01596 10.3181 7.11962 10.1476 7.19034C9.977 7.26106 9.79416 7.29746 9.60952 7.29746C9.42487 7.29746 9.24203 7.26106 9.07146 7.19034C8.9009 7.11962 8.74595 7.01596 8.61547 6.8853Z" fill="#3182CE"/>
<path d="M4.93378 12.2028C4.77323 12.3636 4.51571 12.4263 4.20575 12.4799C3.50936 12.5986 2.89442 11.9968 3.01952 11.2928C3.06727 11.0259 3.20848 10.6518 3.29637 10.5639C3.31558 10.5451 3.32837 10.5207 3.33292 10.4941C3.33746 10.4676 3.33354 10.4403 3.3217 10.4162C3.30986 10.392 3.29071 10.3722 3.26697 10.3595C3.24323 10.3469 3.2161 10.342 3.18944 10.3457C2.80001 10.3933 2.43772 10.5699 2.16024 10.8472C1.47147 11.5366 1.40643 14.0945 1.40643 14.0945C1.40643 14.0945 3.96581 14.0294 4.65458 13.3401C4.9328 13.0628 5.10958 12.7 5.15643 12.31C5.16727 12.1875 5.01815 12.1146 4.93378 12.2028Z" fill="#3182CE"/>
</g>
<defs>
<clipPath id="clip0_0_433">
<rect width="15" height="15" fill="white" transform="translate(0.000152588 0.5)"/>
</clipPath>
</defs>
</svg>
