<svg width="15" height="16" viewBox="0 0 15 16" fill="none" xmlns="http://www.w3.org/2000/svg">
<path d="M12.5392 7.06262H8.43768C8.06472 7.06262 7.70704 6.91446 7.44331 6.65074C7.17959 6.38702 7.03143 6.02933 7.03143 5.65637V1.55481C7.03143 1.52373 7.01909 1.49392 6.99711 1.47195C6.97513 1.44997 6.94533 1.43762 6.91425 1.43762H4.21893C3.72165 1.43762 3.24474 1.63517 2.89311 1.9868C2.54148 2.33843 2.34393 2.81534 2.34393 3.31262V12.6876C2.34393 13.1849 2.54148 13.6618 2.89311 14.0134C3.24474 14.3651 3.72165 14.5626 4.21893 14.5626H10.7814C11.2787 14.5626 11.7556 14.3651 12.1073 14.0134C12.4589 13.6618 12.6564 13.1849 12.6564 12.6876V7.17981C12.6564 7.14873 12.6441 7.11892 12.6221 7.09694C12.6001 7.07497 12.5703 7.06262 12.5392 7.06262Z" fill="#3182CE"/>
<path d="M12.282 6.02597L8.06884 1.81278C8.06064 1.80464 8.05022 1.7991 8.03889 1.79686C8.02756 1.79462 8.01581 1.79578 8.00514 1.80019C7.99446 1.80461 7.98533 1.81208 7.97889 1.82167C7.97244 1.83126 7.96898 1.84254 7.96893 1.85409V5.65712C7.96893 5.78144 8.01832 5.90067 8.10623 5.98858C8.19413 6.07649 8.31336 6.12587 8.43768 6.12587H12.2407C12.2523 6.12582 12.2635 6.12236 12.2731 6.11592C12.2827 6.10948 12.2902 6.10034 12.2946 6.08967C12.299 6.07899 12.3002 6.06725 12.2979 6.05591C12.2957 6.04458 12.2902 6.03416 12.282 6.02597V6.02597Z" fill="#3182CE"/>
</svg>
