<svg width="16" height="15" viewBox="0 0 16 15" fill="none" xmlns="http://www.w3.org/2000/svg">
<g clip-path="url(#clip0_0_239)">
<path d="M13.0392 6.56265H8.93762C8.56466 6.56265 8.20697 6.41449 7.94325 6.15077C7.67953 5.88704 7.53137 5.52936 7.53137 5.1564V1.05484C7.53137 1.02376 7.51902 0.993949 7.49705 0.971972C7.47507 0.949995 7.44526 0.937649 7.41418 0.937649H4.71887C4.22159 0.937649 3.74468 1.13519 3.39305 1.48682C3.04142 1.83845 2.84387 2.31537 2.84387 2.81265V12.1876C2.84387 12.6849 3.04142 13.1618 3.39305 13.5135C3.74468 13.8651 4.22159 14.0626 4.71887 14.0626H11.2814C11.7787 14.0626 12.2556 13.8651 12.6072 13.5135C12.9588 13.1618 13.1564 12.6849 13.1564 12.1876V6.67983C13.1564 6.64875 13.144 6.61895 13.122 6.59697C13.1001 6.57499 13.0703 6.56265 13.0392 6.56265ZM10.3439 11.2501H5.65637C5.53205 11.2501 5.41282 11.2008 5.32492 11.1129C5.23701 11.0249 5.18762 10.9057 5.18762 10.7814C5.18762 10.6571 5.23701 10.5378 5.32492 10.4499C5.41282 10.362 5.53205 10.3126 5.65637 10.3126H10.3439C10.4682 10.3126 10.5874 10.362 10.6753 10.4499C10.7632 10.5378 10.8126 10.6571 10.8126 10.7814C10.8126 10.9057 10.7632 11.0249 10.6753 11.1129C10.5874 11.2008 10.4682 11.2501 10.3439 11.2501ZM10.3439 8.9064H5.65637C5.53205 8.9064 5.41282 8.85701 5.32492 8.7691C5.23701 8.68119 5.18762 8.56197 5.18762 8.43765C5.18762 8.31333 5.23701 8.1941 5.32492 8.10619C5.41282 8.01828 5.53205 7.9689 5.65637 7.9689H10.3439C10.4682 7.9689 10.5874 8.01828 10.6753 8.10619C10.7632 8.1941 10.8126 8.31333 10.8126 8.43765C10.8126 8.56197 10.7632 8.68119 10.6753 8.7691C10.5874 8.85701 10.4682 8.9064 10.3439 8.9064Z" fill="#2D3748"/>
<path d="M12.7818 5.52598L8.56865 1.3128C8.56046 1.30465 8.55004 1.29911 8.53871 1.29687C8.52737 1.29463 8.51563 1.29579 8.50495 1.3002C8.49428 1.30462 8.48514 1.31209 8.4787 1.32168C8.47226 1.33127 8.4688 1.34255 8.46875 1.35411V5.15713C8.46875 5.28145 8.51814 5.40068 8.60604 5.48859C8.69395 5.5765 8.81318 5.62588 8.9375 5.62588H12.7405C12.7521 5.62583 12.7634 5.62237 12.773 5.61593C12.7825 5.60949 12.79 5.60035 12.7944 5.58968C12.7988 5.579 12.8 5.56726 12.7978 5.55593C12.7955 5.54459 12.79 5.53417 12.7818 5.52598V5.52598Z" fill="#2D3748"/>
</g>
<defs>
<clipPath id="clip0_0_239">
<rect width="15" height="15" fill="white" transform="translate(0.500122 -1.52588e-05)"/>
</clipPath>
</defs>
</svg>
