<svg width="35" height="35" viewBox="0 0 35 35" fill="none" xmlns="http://www.w3.org/2000/svg">
<circle cx="17.5001" cy="17.5" r="17" stroke="#A0AEC0"/>
<g clip-path="url(#clip0_0_108)">
<path d="M17.5 22.75C18.1444 22.75 18.6667 22.2276 18.6667 21.5833C18.6667 20.939 18.1444 20.4166 17.5 20.4166C16.8557 20.4166 16.3334 20.939 16.3334 21.5833C16.3334 22.2276 16.8557 22.75 17.5 22.75Z" fill="#A0AEC0"/>
<path d="M17.5 12.25C16.8584 12.25 16.3334 12.775 16.3334 13.4167V18.0833C16.3334 18.725 16.8584 19.25 17.5 19.25C18.1417 19.25 18.6667 18.725 18.6667 18.0833V13.4167C18.6667 12.775 18.1417 12.25 17.5 12.25Z" fill="#A0AEC0"/>
</g>
<defs>
<clipPath id="clip0_0_108">
<rect width="14" height="14" fill="white" transform="translate(10.5001 10.5)"/>
</clipPath>
</defs>
</svg>
