<svg width="16" height="15" viewBox="0 0 16 15" fill="none" xmlns="http://www.w3.org/2000/svg">
<path d="M12.6876 2.34317H3.31262C2.53597 2.34317 1.90637 2.97277 1.90637 3.74942V12.1869C1.90637 12.9636 2.53597 13.5932 3.31262 13.5932H12.6876C13.4643 13.5932 14.0939 12.9636 14.0939 12.1869V3.74942C14.0939 2.97277 13.4643 2.34317 12.6876 2.34317Z" fill="white" stroke="#2D3748" stroke-width="0.75" stroke-linejoin="round"/>
<path d="M12.155 2.34317H3.84524C2.7762 2.34317 1.90637 3.22647 1.90637 4.31192V6.09317H2.37512C2.37512 5.62442 2.84387 5.15567 3.31262 5.15567H12.6876C13.1564 5.15567 13.6251 5.62442 13.6251 6.09317H14.0939V4.31192C14.0939 3.22647 13.224 2.34317 12.155 2.34317Z" fill="#2D3748"/>
<path d="M9.17187 7.49939C9.5602 7.49939 9.875 7.18459 9.875 6.79626C9.875 6.40794 9.5602 6.09314 9.17187 6.09314C8.78355 6.09314 8.46875 6.40794 8.46875 6.79626C8.46875 7.18459 8.78355 7.49939 9.17187 7.49939Z" fill="#2D3748"/>
<path d="M11.5156 7.49939C11.904 7.49939 12.2187 7.18459 12.2187 6.79626C12.2187 6.40794 11.904 6.09314 11.5156 6.09314C11.1273 6.09314 10.8125 6.40794 10.8125 6.79626C10.8125 7.18459 11.1273 7.49939 11.5156 7.49939Z" fill="#2D3748"/>
<path d="M9.17187 9.84271C9.5602 9.84271 9.875 9.52791 9.875 9.13959C9.875 8.75126 9.5602 8.43646 9.17187 8.43646C8.78355 8.43646 8.46875 8.75126 8.46875 9.13959C8.46875 9.52791 8.78355 9.84271 9.17187 9.84271Z" fill="#2D3748"/>
<path d="M11.5156 9.84271C11.904 9.84271 12.2187 9.52791 12.2187 9.13959C12.2187 8.75126 11.904 8.43646 11.5156 8.43646C11.1273 8.43646 10.8125 8.75126 10.8125 9.13959C10.8125 9.52791 11.1273 9.84271 11.5156 9.84271Z" fill="#2D3748"/>
<path d="M4.4845 9.84271C4.87282 9.84271 5.18762 9.52791 5.18762 9.13959C5.18762 8.75126 4.87282 8.43646 4.4845 8.43646C4.09617 8.43646 3.78137 8.75126 3.78137 9.13959C3.78137 9.52791 4.09617 9.84271 4.4845 9.84271Z" fill="#2D3748"/>
<path d="M6.82812 9.84271C7.21645 9.84271 7.53125 9.52791 7.53125 9.13959C7.53125 8.75126 7.21645 8.43646 6.82812 8.43646C6.4398 8.43646 6.125 8.75126 6.125 9.13959C6.125 9.52791 6.4398 9.84271 6.82812 9.84271Z" fill="#2D3748"/>
<path d="M4.4845 12.1869C4.87282 12.1869 5.18762 11.8721 5.18762 11.4838C5.18762 11.0955 4.87282 10.7807 4.4845 10.7807C4.09617 10.7807 3.78137 11.0955 3.78137 11.4838C3.78137 11.8721 4.09617 12.1869 4.4845 12.1869Z" fill="#2D3748"/>
<path d="M6.82812 12.1869C7.21645 12.1869 7.53125 11.8721 7.53125 11.4838C7.53125 11.0955 7.21645 10.7807 6.82812 10.7807C6.4398 10.7807 6.125 11.0955 6.125 11.4838C6.125 11.8721 6.4398 12.1869 6.82812 12.1869Z" fill="#2D3748"/>
<path d="M9.17187 12.1869C9.5602 12.1869 9.875 11.8721 9.875 11.4838C9.875 11.0955 9.5602 10.7807 9.17187 10.7807C8.78355 10.7807 8.46875 11.0955 8.46875 11.4838C8.46875 11.8721 8.78355 12.1869 9.17187 12.1869Z" fill="#2D3748"/>
<path d="M4.25 1.40558V2.34308" stroke="#2D3748" stroke-width="0.75" stroke-linecap="round" stroke-linejoin="round"/>
<path d="M11.75 1.40558V2.34308" stroke="#2D3748" stroke-width="0.75" stroke-linecap="round" stroke-linejoin="round"/>
</svg>
