<svg width="28" height="21" viewBox="0 0 28 21" fill="none" xmlns="http://www.w3.org/2000/svg">
<path d="M19.6296 15.5958L16.873 12.8393C17.5367 11.9558 17.895 10.8804 17.8937 9.7754C17.8937 6.95294 15.5975 4.65665 12.775 4.65665C9.95254 4.65665 7.65625 6.95294 7.65625 9.7754C7.65625 12.5979 9.95254 14.8941 12.775 14.8941C13.88 14.8954 14.9554 14.5371 15.8389 13.8734L18.5954 16.63C18.7349 16.7547 18.9169 16.8213 19.104 16.8161C19.2911 16.8108 19.4691 16.7342 19.6014 16.6018C19.7338 16.4695 19.8104 16.2915 19.8157 16.1044C19.8209 15.9173 19.7543 15.7353 19.6296 15.5958ZM9.11875 9.7754C9.11875 9.05226 9.33318 8.34537 9.73494 7.7441C10.1367 7.14283 10.7077 6.6742 11.3758 6.39747C12.0439 6.12074 12.7791 6.04833 13.4883 6.18941C14.1975 6.33048 14.849 6.67871 15.3604 7.19004C15.8717 7.70138 16.2199 8.35286 16.361 9.0621C16.5021 9.77135 16.4297 10.5065 16.1529 11.1746C15.8762 11.8427 15.4076 12.4137 14.8063 12.8155C14.205 13.2172 13.4981 13.4317 12.775 13.4317C11.8057 13.4305 10.8764 13.0449 10.1909 12.3595C9.5055 11.674 9.11991 10.7447 9.11875 9.7754Z" fill="#2D3748"/>
</svg>
