<svg width="12" height="12" viewBox="0 0 12 12" fill="none" xmlns="http://www.w3.org/2000/svg">
<g clip-path="url(#clip0_0_481)">
<path d="M10.3144 7.99927C10.2755 7.95239 10.2373 7.90552 10.1998 7.86028C9.68421 7.23661 9.37225 6.8602 9.37225 5.09466C9.37225 4.1806 9.15358 3.4306 8.72257 2.8681C8.40475 2.45255 7.97514 2.13732 7.40889 1.90435C7.40161 1.90029 7.3951 1.89498 7.38968 1.88864C7.186 1.20661 6.62866 0.749817 6.00007 0.749817C5.37147 0.749817 4.81436 1.20661 4.61069 1.88794C4.60526 1.89404 4.59884 1.89919 4.59171 1.90318C3.2703 2.44716 2.62812 3.49083 2.62812 5.09396C2.62812 6.8602 2.31663 7.23661 1.80054 7.85958C1.76304 7.90481 1.72484 7.95075 1.68593 7.99856C1.58543 8.11976 1.52175 8.26722 1.50244 8.42348C1.48313 8.57974 1.50898 8.73826 1.57694 8.88028C1.72155 9.18497 2.02976 9.37411 2.38155 9.37411H9.62116C9.97131 9.37411 10.2774 9.1852 10.4225 8.88192C10.4907 8.73986 10.5168 8.58121 10.4977 8.42477C10.4785 8.26834 10.4149 8.12067 10.3144 7.99927Z" fill="white"/>
<path d="M5.99996 11.25C6.33864 11.2497 6.67093 11.1578 6.96159 10.984C7.25225 10.8101 7.49044 10.5609 7.65089 10.2626C7.65845 10.2483 7.66219 10.2323 7.66173 10.2161C7.66128 10.2 7.65665 10.1842 7.6483 10.1704C7.63995 10.1565 7.62816 10.1451 7.61408 10.1371C7.59999 10.1292 7.58409 10.125 7.56792 10.125H4.43246C4.41627 10.125 4.40034 10.1291 4.38622 10.137C4.37211 10.1449 4.36029 10.1564 4.35191 10.1703C4.34353 10.1841 4.33888 10.1999 4.33842 10.2161C4.33795 10.2323 4.34169 10.2483 4.34926 10.2626C4.50969 10.5608 4.74784 10.8101 5.03846 10.9839C5.32907 11.1577 5.66132 11.2497 5.99996 11.25Z" fill="white"/>
</g>
<defs>
<clipPath id="clip0_0_481">
<rect width="12" height="12" fill="white"/>
</clipPath>
</defs>
</svg>
