<svg width="58" height="17" viewBox="0 0 58 17" fill="none" xmlns="http://www.w3.org/2000/svg">
<g clip-path="url(#clip0_0_477)">
<path d="M7.79627 4.01346C7.34018 3.52103 6.70315 3.24986 6.00002 3.24986C5.29315 3.24986 4.65401 3.51939 4.20002 4.00877C3.74112 4.50353 3.51752 5.17596 3.57002 5.90205C3.67409 7.33455 4.76416 8.49986 6.00002 8.49986C7.23588 8.49986 8.32408 7.33478 8.42979 5.90252C8.48299 5.18299 8.25799 4.51197 7.79627 4.01346Z" fill="white"/>
<path d="M10.1249 13.7493H1.87489C1.7669 13.7507 1.65996 13.7281 1.56185 13.6829C1.46374 13.6378 1.37691 13.5714 1.3077 13.4885C1.15536 13.3064 1.09395 13.0577 1.13942 12.8062C1.33723 11.7089 1.95458 10.7871 2.92489 10.14C3.78692 9.56552 4.87887 9.24934 5.99989 9.24934C7.1209 9.24934 8.21285 9.56575 9.07488 10.14C10.0452 10.7868 10.6625 11.7086 10.8604 12.806C10.9058 13.0575 10.8444 13.3061 10.6921 13.4882C10.6229 13.5712 10.5361 13.6377 10.438 13.6828C10.3398 13.728 10.2329 13.7507 10.1249 13.7493Z" fill="white"/>
<path d="M21.208 5.88405C21.556 5.88405 21.868 5.92005 22.144 5.99205C22.408 6.05205 22.636 6.14805 22.828 6.25605C23.02 6.36405 23.188 6.49605 23.32 6.65205C23.464 6.79605 23.56 6.95205 23.644 7.10805C23.716 7.27605 23.776 7.44405 23.812 7.61205C23.836 7.78005 23.86 7.93605 23.86 8.09205C23.86 8.30805 23.836 8.50005 23.8 8.68005C23.752 8.84805 23.704 9.00405 23.62 9.14805C23.524 9.29205 23.428 9.42405 23.284 9.53205C23.152 9.65205 22.996 9.76005 22.804 9.85605C23.092 9.96405 23.32 10.0961 23.5 10.2521C23.68 10.4201 23.812 10.5881 23.908 10.7681C24.004 10.9601 24.064 11.1521 24.088 11.3441C24.124 11.5481 24.136 11.7401 24.136 11.9201C24.136 12.3401 24.064 12.7121 23.908 13.0241C23.752 13.3481 23.536 13.6121 23.26 13.8281C22.996 14.0441 22.648 14.2241 22.252 14.3321C21.856 14.4401 21.424 14.5001 20.932 14.5001H16.984V5.88405H21.208ZM20.932 9.28005C21.088 9.28005 21.244 9.25605 21.388 9.23205C21.532 9.19605 21.664 9.13605 21.772 9.05205C21.88 8.98005 21.976 8.87205 22.036 8.75205C22.096 8.62005 22.132 8.47605 22.132 8.29605C22.132 8.11605 22.108 7.96005 22.048 7.84005C21.988 7.72005 21.904 7.62405 21.796 7.55205C21.688 7.49205 21.568 7.44405 21.424 7.40805C21.28 7.38405 21.136 7.37205 20.98 7.37205H18.712V9.28005H20.932ZM20.956 13.0121C21.16 13.0121 21.34 12.9881 21.508 12.9401C21.676 12.8921 21.82 12.8201 21.952 12.7241C22.072 12.6281 22.168 12.5081 22.24 12.3641C22.3 12.2201 22.336 12.0401 22.336 11.8481C22.336 11.5961 22.288 11.3921 22.216 11.2481C22.132 11.0921 22.024 10.9841 21.892 10.9001C21.748 10.8161 21.604 10.7561 21.436 10.7321C21.256 10.7081 21.088 10.6961 20.908 10.6961H18.712V13.0121H20.956ZM25.0682 11.3081C25.0682 10.8161 25.1522 10.3601 25.2962 9.95205C25.4402 9.53205 25.6562 9.17205 25.9442 8.87205C26.2322 8.57205 26.5682 8.34405 26.9762 8.17605C27.3842 8.00805 27.8282 7.92405 28.3322 7.92405C28.8482 7.92405 29.3042 8.00805 29.7122 8.17605C30.1202 8.34405 30.4562 8.57205 30.7322 8.87205C31.0082 9.17205 31.2242 9.53205 31.3802 9.95205C31.5242 10.3601 31.5962 10.8161 31.5962 11.3081C31.5962 11.8001 31.5242 12.2561 31.3802 12.6641C31.2242 13.0841 31.0082 13.4441 30.7322 13.7441C30.4562 14.0321 30.1202 14.2721 29.7122 14.4401C29.3042 14.6081 28.8482 14.6921 28.3322 14.6921C27.8282 14.6921 27.3842 14.6081 26.9762 14.4401C26.5682 14.2721 26.2322 14.0321 25.9442 13.7441C25.6562 13.4441 25.4402 13.0841 25.2962 12.6641C25.1522 12.2561 25.0682 11.8001 25.0682 11.3081ZM26.7962 11.3081C26.7962 11.5481 26.8322 11.7881 26.8802 12.0161C26.9282 12.2561 27.0122 12.4721 27.1442 12.6521C27.2642 12.8441 27.4202 13.0001 27.6122 13.1081C27.8042 13.2161 28.0442 13.2761 28.3322 13.2761C28.6322 13.2761 28.8842 13.2161 29.0762 13.1081C29.2682 13.0001 29.4242 12.8441 29.5442 12.6641C29.6642 12.4841 29.7482 12.2801 29.7962 12.0401C29.8442 11.8001 29.8682 11.5601 29.8682 11.3081C29.8682 11.0561 29.8442 10.8161 29.7962 10.5761C29.7482 10.3361 29.6642 10.1201 29.5442 9.94005C29.4242 9.76005 29.2682 9.61605 29.0762 9.49605C28.8842 9.38805 28.6322 9.34005 28.3322 9.34005C28.0442 9.34005 27.8042 9.40005 27.6122 9.50805C27.4202 9.61605 27.2642 9.77205 27.1442 9.95205C27.0122 10.1441 26.9282 10.3481 26.8802 10.5881C26.8322 10.8281 26.7962 11.0681 26.7962 11.3081ZM37.6838 5.44005C37.6838 5.75205 37.6238 6.01605 37.5278 6.23205C37.4318 6.44805 37.2878 6.62805 37.1078 6.76005C36.9278 6.90405 36.7238 7.00005 36.4718 7.07205C36.2318 7.13205 35.9558 7.16805 35.6678 7.16805C35.3798 7.16805 35.1038 7.13205 34.8638 7.07205C34.6118 7.00005 34.4078 6.90405 34.2278 6.76005C34.0358 6.62805 33.9038 6.44805 33.8078 6.23205C33.7118 6.01605 33.6518 5.75205 33.6518 5.44005H34.8518C34.8638 5.54805 34.8758 5.65605 34.8998 5.75205C34.9238 5.84805 34.9598 5.93205 35.0198 6.00405C35.0798 6.07605 35.1638 6.12405 35.2718 6.17205C35.3678 6.20805 35.5118 6.23205 35.6678 6.23205C35.8238 6.23205 35.9678 6.22005 36.0758 6.18405C36.1838 6.14805 36.2558 6.10005 36.3278 6.02805C36.3878 5.96805 36.4358 5.88405 36.4598 5.78805C36.4838 5.69205 36.4958 5.57205 36.4838 5.44005H37.6838ZM34.4558 12.0521H34.4798L36.8078 8.11605H38.5478V14.5001H36.8918V10.6481H36.8678L34.6118 14.5001H32.7998V8.11605H34.4558V12.0521ZM39.5838 8.11605H45.1038V9.46005H43.1718V14.5001H41.5158V9.46005H39.5838V8.11605ZM47.7918 12.0521H47.8158L50.1438 8.11605H51.8838V14.5001H50.2278V10.6481H50.2038L47.9478 14.5001H46.1358V8.11605H47.7918V12.0521Z" fill="white"/>
</g>
<defs>
<clipPath id="clip0_0_477">
<rect width="58" height="16" fill="white" transform="translate(0 0.500053)"/>
</clipPath>
</defs>
</svg>
