<svg width="75.000000" height="75.000000" viewBox="0 0 75 75" fill="none" xmlns="http://www.w3.org/2000/svg" xmlns:xlink="http://www.w3.org/1999/xlink">
	<desc>
			Created with Pixso.
	</desc>
	<defs>
		<filter id="filter_0_309_dd" x="0.000000" y="0.000000" width="75.000000" height="75.000000" filterUnits="userSpaceOnUse" color-interpolation-filters="sRGB">
			<feFlood flood-opacity="0" result="BackgroundImageFix"/>
			<feColorMatrix in="SourceAlpha" type="matrix" values="0 0 0 0 0 0 0 0 0 0 0 0 0 0 0 0 0 0 127 0" result="hardAlpha"/>
			<feOffset dx="0" dy="3.5"/>
			<feGaussianBlur stdDeviation="1.83333"/>
			<feComposite in2="hardAlpha" operator="out" k2="-1" k3="1"/>
			<feColorMatrix type="matrix" values="0 0 0 0 0 0 0 0 0 0 0 0 0 0 0 0 0 0 0.02 0"/>
			<feBlend mode="normal" in2="BackgroundImageFix" result="effect_dropShadow_1"/>
			<feBlend mode="normal" in="SourceGraphic" in2="effect_dropShadow_1" result="shape"/>
		</filter>
	</defs>
	<g filter="url(#filter_0_309_dd)">
		<rect id="Rectangle 3" x="5.500000" y="2.000000" rx="8.000000" width="63.999996" height="63.999996" fill="#3182CE" fill-opacity="1.000000"/>
	</g>
	<path id="Vector" d="M48.17 24.67C47.14 23.5 45.26 22.99 42.86 22.99L35.89 22.99C35.4 22.99 34.98 23.35 34.9 23.83L32 42.08C31.95 42.44 32.23 42.77 32.59 42.77L36.9 42.77L37.98 35.97L37.94 36.19C38.02 35.71 38.43 35.35 38.93 35.35L40.97 35.35C44.99 35.35 48.13 33.73 49.05 29.05C49.08 28.91 49.12 28.65 49.12 28.65C49.38 26.91 49.12 25.74 48.17 24.67Z" fill="#FFFFFF" fill-opacity="1.000000" fill-rule="nonzero"/>
</svg>
